# xmcd
#
# Track frame offsets: 
#        182
#        22682
#        39947
#
# Disc length: 750 seconds
#
# Revision: 0
# Processed by: cddbd v1.4PL0 Copyright (c) Steve Scherf et al.
# Submitted via: ExactAudioCopy v0.90b3
#
DISCID=1102ec03
DTITLE=Brian McKnight - On The Down Low
DYEAR=1995
DGENRE=R&B
TTITLE0=LP Version
TTITLE1=Remix Feat. Power Of Three
TTITLE2=Remix With Rap (Radio Edit)
EXTD=
EXTT0=
EXTT1=
EXTT2=
PLAYORDER=
